<?xml version="1.0" encoding="UTF-8"?>
<!DOCTYPE svg PUBLIC "-//W3C//DTD SVG 1.1//EN" "http://www.w3.org/Graphics/SVG/1.1/DTD/svg11.dtd">
<!-- Creator: CorelDRAW -->
<svg xmlns="http://www.w3.org/2000/svg" xml:space="preserve" width="6.15569in" height="1.28813in" version="1.1" style="shape-rendering:geometricPrecision; text-rendering:geometricPrecision; image-rendering:optimizeQuality; fill-rule:evenodd; clip-rule:evenodd"
viewBox="0 0 6155.69 1288.13"
 xmlns:xlink="http://www.w3.org/1999/xlink"
 xmlns:xodm="http://www.corel.com/coreldraw/odm/2003">
 <defs>
  <style type="text/css">
   <![CDATA[
    .fil1 {fill:black}
    .fil0 {fill:#23BC23}
    .fil2 {fill:black;fill-rule:nonzero}
   ]]>
  </style>
 </defs>
 <g id="Layer_x0020_1">
  <metadata id="CorelCorpID_0Corel-Layer"/>
  <path class="fil0" d="M898.79 764.08l-18.1 -20.73 -0.03 -0.04 0 0 -576.48 -660.24c-47.3,-54.17 -109.24,-82.26 -181.15,-82.16l-120.32 0.18 -2.7 848.31c-0.2,66.22 23.27,123.28 70.01,170.19 46.74,46.91 103.72,70.59 169.95,70.6l107.38 0.04c11.21,-0.2 40.93,1.46 49.59,-1.19l-1.77 -177c0.07,-5.78 -0.86,-10.56 -0.68,-16.31 0.03,-0.99 0.09,-1.98 0.14,-2.93 0.27,-5.32 0.36,-9.87 0.3,-15.21l-0.48 -41.76c-0.04,-2.98 -0.02,-5.54 0.05,-8.53 0.67,-28.46 -2.8,-82.13 -1.46,-111.41 0.28,-6.02 -0.64,-10.17 -0.5,-16.28 0.02,-0.85 0.05,-1.65 0.09,-2.38 0.3,-5.3 0.39,-9.8 0.35,-15.1l-0.28 -34.12 317.83 362.02c47.22,53.78 108.81,81.67 180.38,81.67l348.12 0 0 -15.7 0.41 0 -0.41 -29.66 0 -23.76 -0.33 0.02 -0.6 -42.82 0.01 0 0.29 -65.1c-1.59,-64.63 -32.35,-75.28 -101.14,-77.87l-108.9 0c-52.66,0 -103.48,-45.19 -129.57,-72.73z"/>
  <path class="fil0" d="M1239.24 0l-805.94 0.3 186.54 209.01c33.9,37.99 77.95,57.4 128.86,56.8l322.55 -3.78c92.98,-1.09 168.09,-77.13 168.04,-170.11l-0.04 -92.22z"/>
  <path class="fil0" d="M1138.28 707.49l99.61 -0.06c0.22,-41.02 0.12,-81.69 -0.19,-122.3 -0.83,-104.13 -85.89,-188.53 -190.03,-188.53l-265.03 -0.01 211.71 245.09c37.42,43.32 86.7,65.85 143.93,65.81z"/>
  <path class="fil1" d="M2014.7 28.98l0 345.08 -226.87 -345.08 -165.13 0 0 574.11 146.68 0 0 -371.41 245.31 371.41 146.68 0 0 -574.11 -146.68 0zm713.62 334.79c0,-151.82 -108.09,-246.17 -248.76,-246.17 -139.8,0 -248.74,94.35 -248.74,246.17 0,151.83 106.37,246.17 247.03,246.17 140.67,0 250.48,-94.35 250.48,-246.17zm-348.26 0c0,-81.48 46.33,-119.24 99.5,-119.24 51.47,0 99.51,37.75 99.51,119.24 0,80.63 -48.9,119.22 -101.22,119.22 -53.17,0 -97.78,-38.59 -97.78,-119.22zm565.24 17.15c0,-82.35 40.31,-106.36 109.79,-106.36l40.3 0 0 -155.25c-64.31,0 -116.65,34.3 -150.09,84.91l0 -79.77 -146.68 0 0 478.63 146.68 0 0 -222.16zm183.52 -18.01c0,150.97 93.51,247.03 211.02,247.03 70.33,0 120.95,-31.73 147.54,-75.48l0 68.62 146.68 0 0 -574.11 -146.68 0 0 161.53c-29.16,-43.75 -84.06,-72.91 -147.54,-72.91 -117.51,0 -211.02,94.35 -211.02,245.31zm358.55 0.86c0,76.34 -48.9,118.36 -104.64,118.36 -54.9,0 -104.66,-42.88 -104.66,-119.22 0,-76.34 49.76,-117.52 104.66,-117.52 55.74,0 104.64,42.04 104.64,118.38zm216.11 -0.86c0,150.97 93.51,247.03 210.16,247.03 71.2,0 121.81,-32.59 148.39,-74.63l0 67.77 146.68 0 0 -478.63 -146.68 0 0 67.76c-25.73,-42.04 -76.34,-74.63 -147.54,-74.63 -117.5,0 -211.02,94.35 -211.02,245.31zm358.55 0.86c0,76.34 -48.9,118.36 -104.64,118.36 -54.9,0 -104.66,-42.88 -104.66,-119.22 0,-76.34 49.76,-117.52 104.66,-117.52 55.74,0 104.64,42.04 104.64,118.38zm268.44 72.91c0,124.37 69.48,166.41 168.98,166.41l74.63 0 0 -124.38 -52.33 0c-32.59,0 -44.59,-12.01 -44.59,-40.31l0 -192.15 96.06 0 0 -121.79 -96.06 0 0 -95.48 -146.68 0 0 95.48 -58.33 0 0 121.79 58.33 0 0 190.43zm528.33 -201.58c48.9,0 90.08,30.03 90.08,82.34l-183.57 0c8.57,-53.17 45.47,-82.34 93.49,-82.34zm229.02 209.3l-156.11 0c-12.01,25.73 -35.16,46.33 -76.34,46.33 -47.17,0 -85.77,-29.18 -90.92,-91.8l331.95 0c1.71,-14.58 2.57,-29.16 2.57,-42.88 0,-145.82 -98.64,-238.46 -238.46,-238.46 -142.37,0 -241.89,94.35 -241.89,246.17 0,151.83 101.23,246.17 241.89,246.17 119.24,0 204.15,-72.05 227.31,-165.54zm51.44 -80.63c0,151.83 99.51,246.17 240.17,246.17 120.09,0 205.01,-69.48 229.88,-180.12l-156.11 0c-12.86,35.16 -36.02,54.89 -76.34,54.89 -52.31,0 -88.35,-41.17 -88.35,-120.94 0,-79.77 36.04,-120.95 88.35,-120.95 40.32,0 64.33,21.46 76.34,54.9l156.11 0c-24.87,-114.07 -109.79,-180.12 -229.88,-180.12 -140.66,0 -240.17,95.21 -240.17,246.17zm540.37 239.31l146.68 0 0 -259.9c0,-65.19 36.02,-101.22 91.78,-101.22 55.74,0 91.78,36.04 91.78,101.22l0 259.9 145.82 0 0 -279.64c0,-128.65 -72.91,-204.13 -181.85,-204.13 -66.04,0 -118.36,28.3 -147.52,69.48l0 -159.81 -146.68 0 0 574.11z"/>
  <polygon class="fil2" points="1863.63,666.2 1622.69,666.2 1622.69,1114.66 1863.63,1114.66 1863.63,1066.48 1681.16,1066.48 1681.16,912.28 1844.35,912.28 1844.35,864.09 1681.16,864.09 1681.16,714.39 1863.63,714.39 "/>
  <path id="_1" class="fil2" d="M2164.38 1114.66l57.82 0 0 -207.52c0,-100.87 -62.32,-150.98 -143.92,-150.98 -47.54,0 -89.95,19.92 -113.08,56.54l0 -50.11 -58.46 0 0 352.08 58.46 0 0 -194.67c0,-75.81 41.12,-113.08 100.87,-113.08 59.11,0 98.3,36.62 98.3,108.58l0 199.17z"/>
  <path id="_2" class="fil2" d="M2422.08 806.27c60.39,0 111.79,37.91 111.15,106.65l-222.3 0c6.43,-68.75 53.97,-106.65 111.15,-106.65zm164.48 199.81l-62.96 0c-12.85,37.91 -46.26,64.89 -98.94,64.89 -59.75,0 -109.87,-39.19 -114.36,-110.51l281.41 0c1.29,-12.21 1.93,-22.49 1.93,-35.34 0,-96.37 -66.82,-168.33 -168.98,-168.33 -102.8,0 -174.11,70.03 -174.11,181.18 0,111.8 73.89,182.47 174.11,182.47 87.38,0 143.92,-50.11 161.91,-114.36z"/>
  <path id="_3" class="fil2" d="M2683.63 923.2c0,-81.6 42.41,-106.65 98.3,-106.65l15.42 0 0 -60.39c-55.89,0 -93.8,24.41 -113.72,63.61l0 -57.18 -58.46 0 0 352.08 58.46 0 0 -191.46z"/>
  <path id="_4" class="fil2" d="M2797.42 937.33c0,109.22 72.6,183.11 167.05,183.11 64.25,0 109.87,-34.05 131.07,-71.96l0 73.89c0,75.17 -46.9,115.01 -109.22,115.01 -57.83,0 -99.59,-28.91 -112.44,-71.32l-57.82 0c11.56,75.17 77.74,122.07 170.26,122.07 103.44,0 168.33,-68.75 168.33,-165.76l0 -359.79 -59.11 0 0 64.25c-20.56,-37.91 -66.82,-70.03 -131.07,-70.03 -94.44,0 -167.05,70.67 -167.05,180.54zm298.11 0.64c0,82.88 -55.25,131.07 -119.5,131.07 -64.25,0 -118.86,-48.83 -118.86,-131.71 0,-82.88 54.61,-129.78 118.86,-129.78 64.25,0 119.5,48.83 119.5,130.43z"/>
  <polygon id="_5" class="fil2" points="3341.68,1047.84 3231.17,762.58 3166.28,762.58 3308.27,1110.81 3238.88,1280.42 3299.27,1280.42 3511.29,762.58 3450.9,762.58 "/>
 </g>
</svg>
